<svg xmlns="http://www.w3.org/2000/svg" viewBox="0 0 320 180" role="img" aria-labelledby="title desc">
  <title id="title">Xoloitzcuintle</title>
  <desc id="desc">Ilustracion estilizada de un xoloitzcuintle</desc>
  <defs>
    <linearGradient id="jade" x1="0" y1="0" x2="1" y2="1">
      <stop offset="0%" stop-color="#0fb89c"/>
      <stop offset="100%" stop-color="#0b7f76"/>
    </linearGradient>
  </defs>
  <rect width="320" height="180" fill="#0a0c0d"/>
  <path d="M46 120c8-20 32-34 62-34 30 0 53 10 81 8 24-2 42-13 61-30 8-7 22 5 15 14-11 15-18 32-16 52H52c-7 0-10-5-6-10z" fill="#11181a"/>
  <path d="M143 77c11-22 22-35 45-42 14-4 19 10 8 15-10 5-19 13-25 27z" fill="#1b2a2d"/>
  <path d="M76 110c0-20 17-36 37-36 16 0 27 11 32 22 11-4 25-6 39-2 25 7 43 26 43 45h-151v-29z" fill="url(#jade)"/>
  <circle cx="126" cy="95" r="5" fill="#062625"/>
  <path d="M114 106c7 6 18 6 26 0" stroke="#062625" stroke-width="3" fill="none" stroke-linecap="round"/>
  <path d="M73 133h172" stroke="#d9b36a" stroke-width="4" stroke-linecap="round"/>
</svg>
